<mxfile host="app.diagrams.net" modified="2023-10-06T14:30:00.068Z" agent="Mozilla/5.0 (X11; Linux x86_64; rv:109.0) Gecko/20100101 Firefox/118.0" version="22.0.3" etag="LA1SMv_48LoIWsVy71kj" type="github">
  <diagram name="Seite-1" id="sS9D55qsQwh3D_6DR1mg">
    <mxGraphModel>
      <root>
        <mxCell id="0" />
        <mxCell id="1" parent="0" />
      </root>
    </mxGraphModel>
  </diagram>
</mxfile>
